<svg width="89" height="99" viewBox="0 0 89 99" fill="none" xmlns="http://www.w3.org/2000/svg">
<rect width="89" height="99" fill="#35A3FC"/>
<path d="M55.125 23H34.875C25.5566 23 18 30.5566 18 39.875V60.125C18 69.4434 25.5566 77 34.875 77H55.125C64.4434 77 72 69.4434 72 60.125V39.875C72 30.5566 64.4434 23 55.125 23ZM66.9375 60.125C66.9375 66.6387 61.6387 71.9375 55.125 71.9375H34.875C28.3613 71.9375 23.0625 66.6387 23.0625 60.125V39.875C23.0625 33.3613 28.3613 28.0625 34.875 28.0625H55.125C61.6387 28.0625 66.9375 33.3613 66.9375 39.875V60.125Z" fill="white"/>
<path d="M45 36.5C37.5446 36.5 31.5 42.5446 31.5 50C31.5 57.4554 37.5446 63.5 45 63.5C52.4554 63.5 58.5 57.4554 58.5 50C58.5 42.5446 52.4554 36.5 45 36.5ZM45 58.4375C40.3492 58.4375 36.5625 54.6508 36.5625 50C36.5625 45.3459 40.3492 41.5625 45 41.5625C49.6508 41.5625 53.4375 45.3459 53.4375 50C53.4375 54.6508 49.6508 58.4375 45 58.4375Z" fill="white"/>
<path d="M59.5125 37.2862C60.506 37.2862 61.3114 36.4808 61.3114 35.4874C61.3114 34.4939 60.506 33.6885 59.5125 33.6885C58.519 33.6885 57.7136 34.4939 57.7136 35.4874C57.7136 36.4808 58.519 37.2862 59.5125 37.2862Z" fill="white"/>
</svg>
