<svg width="89" height="99" viewBox="0 0 89 99" fill="none" xmlns="http://www.w3.org/2000/svg">
<rect width="89" height="99" fill="#35A3FC"/>
<path d="M80.6507 65.7674C80.5611 65.5862 80.4775 65.436 80.3999 65.3156C79.1152 63.1465 76.6603 60.4841 73.0366 57.3276L72.96 57.2554L72.9216 57.2199L72.8829 57.1836H72.844C71.1994 55.7138 70.1579 54.7255 69.7218 54.2195C68.9238 53.2557 68.745 52.2801 69.1811 51.2915C69.4893 50.5447 70.6467 48.9674 72.6508 46.5575C73.7049 45.2804 74.5398 44.2568 75.1563 43.4856C79.6029 37.9436 81.5307 34.4022 80.9393 32.86L80.7096 32.4996C80.5553 32.2826 80.1569 32.0841 79.5152 31.9031C78.8719 31.7224 78.0497 31.6926 77.0471 31.8129L65.9447 31.8848C65.7648 31.8251 65.508 31.8307 65.1734 31.9031C64.8392 31.9755 64.672 32.0118 64.672 32.0118L64.4788 32.1023L64.3254 32.2111C64.1969 32.283 64.0555 32.4094 63.9011 32.5902C63.7476 32.7703 63.6192 32.9817 63.5166 33.2226C62.3078 36.1381 60.9335 38.8487 59.3911 41.3544C58.4401 42.8485 57.5668 44.1434 56.7691 45.2398C55.9726 46.3358 55.3044 47.1433 54.7651 47.6609C54.225 48.179 53.7375 48.5941 53.2998 48.9076C52.8627 49.2213 52.529 49.3539 52.298 49.3054C52.0664 49.2569 51.8484 49.2088 51.6419 49.1607C51.2823 48.9437 50.9931 48.6486 50.775 48.2752C50.556 47.9018 50.4086 47.4317 50.3315 46.8655C50.2548 46.2989 50.2094 45.8116 50.1964 45.4018C50.1844 44.9925 50.1899 44.4136 50.216 43.6668C50.2427 42.9195 50.2548 42.4139 50.2548 42.1489C50.2548 41.2331 50.2738 40.2393 50.312 39.1671C50.3509 38.0949 50.3824 37.2453 50.4087 36.6195C50.4349 35.993 50.447 35.3302 50.447 34.6314C50.447 33.9327 50.4017 33.3847 50.312 32.9869C50.2234 32.5897 50.0875 32.2041 49.9083 31.8303C49.728 31.4569 49.4642 31.168 49.118 30.9629C48.7711 30.7581 48.3398 30.5955 47.8266 30.4748C46.4643 30.1858 44.7296 30.0294 42.6217 30.0051C37.8416 29.957 34.7701 30.2464 33.408 30.8729C32.8682 31.1376 32.3799 31.4993 31.9432 31.9567C31.4804 32.487 31.4159 32.7764 31.75 32.824C33.2922 33.0406 34.3841 33.5587 35.0267 34.3779L35.2582 34.8119C35.4384 35.1251 35.6182 35.6796 35.7982 36.4745C35.9779 37.2695 36.0939 38.1489 36.145 39.1123C36.2732 40.8715 36.2732 42.3773 36.145 43.6301C36.0163 44.8833 35.8947 45.8589 35.7788 46.5577C35.6628 47.2564 35.4894 47.8227 35.2582 48.2562C35.0267 48.6899 34.8726 48.955 34.7954 49.0512C34.7183 49.1474 34.654 49.208 34.6029 49.2318C34.2689 49.3518 33.9215 49.413 33.5619 49.413C33.2018 49.413 32.7651 49.2441 32.2512 48.9066C31.7374 48.5691 31.2042 48.1056 30.6515 47.5152C30.0988 46.9246 29.4756 46.0994 28.7814 45.0394C28.0877 43.9793 27.368 42.7265 26.6227 41.2808L26.006 40.2324C25.6205 39.558 25.0939 38.5759 24.4257 37.2871C23.757 35.9978 23.166 34.7507 22.6522 33.5459C22.4468 33.04 22.1383 32.6548 21.7272 32.3897L21.5342 32.2809C21.4059 32.1847 21.2 32.0826 20.9175 31.9737C20.6346 31.865 20.3395 31.787 20.0308 31.739L9.46776 31.8109C8.38835 31.8109 7.65596 32.0402 7.27032 32.498L7.11599 32.7146C7.03889 32.8353 7 33.0279 7 33.2931C7 33.5582 7.0771 33.8835 7.23144 34.2688C8.77345 37.6664 10.4504 40.9431 12.2621 44.0994C14.0739 47.2558 15.6484 49.7983 16.9845 51.7247C18.3208 53.6525 19.683 55.472 21.0709 57.1822C22.4589 58.893 23.3776 59.9894 23.8271 60.4711C24.2771 60.9536 24.6306 61.3144 24.8876 61.5553L25.8516 62.4226C26.4684 63.0009 27.3741 63.6936 28.5693 64.5006C29.7646 65.3081 31.088 66.1031 32.5401 66.8868C33.9925 67.6692 35.6821 68.3078 37.6099 68.8016C39.5374 69.2959 41.4134 69.4943 43.2383 69.3986H47.6718C48.571 69.3258 49.2522 69.0607 49.7152 68.6032L49.8686 68.4221C49.9717 68.2783 50.0683 68.0548 50.1574 67.7542C50.2476 67.453 50.2924 67.1212 50.2924 66.7603C50.2661 65.7245 50.3502 64.7909 50.5425 63.9597C50.7346 63.1288 50.9537 62.5023 51.1986 62.0804C51.4434 61.6588 51.7197 61.3031 52.0271 61.0148C52.3353 60.7258 52.5548 60.5507 52.6836 60.4904C52.8116 60.4298 52.9139 60.3887 52.991 60.364C53.6078 60.1713 54.3337 60.3579 55.1697 60.9246C56.0052 61.4909 56.7887 62.19 57.5217 63.0209C58.2542 63.8526 59.1343 64.7857 60.1621 65.8216C61.1906 66.8578 62.0899 67.6281 62.8606 68.1348L63.6314 68.5685C64.1461 68.8579 64.8143 69.123 65.6369 69.3639C66.458 69.6047 67.1774 69.6649 67.7952 69.5445L77.6639 69.4002C78.64 69.4002 79.3996 69.2487 79.9383 68.948C80.4782 68.6469 80.7989 68.3151 80.9023 67.9542C81.0055 67.5929 81.011 67.183 80.9219 66.7248C80.8305 66.2677 80.7404 65.948 80.6507 65.7674Z" fill="white"/>
</svg>
