<svg width="160" height="100" viewBox="0 0 160 100" fill="none" xmlns="http://www.w3.org/2000/svg">
<rect width="160" height="100" fill="white"/>
<path d="M19.224 53.8H10.296L8.448 58H5.976L13.584 41.2H15.96L23.592 58H21.072L19.224 53.8ZM18.384 51.88L14.76 43.648L11.136 51.88H18.384ZM27.9701 47.416C28.3701 46.68 28.9621 46.12 29.7461 45.736C30.5301 45.352 31.4821 45.16 32.6021 45.16V47.392C32.4741 47.376 32.2981 47.368 32.0741 47.368C30.8261 47.368 29.8421 47.744 29.1221 48.496C28.4181 49.232 28.0661 50.288 28.0661 51.664V58H25.7621V45.28H27.9701V47.416ZM43.1094 57.256C42.7734 57.544 42.3574 57.768 41.8614 57.928C41.3654 58.072 40.8534 58.144 40.3254 58.144C39.0454 58.144 38.0534 57.8 37.3494 57.112C36.6454 56.424 36.2934 55.44 36.2934 54.16V47.176H34.1334V45.28H36.2934V42.496H38.5974V45.28H42.2454V47.176H38.5974V54.064C38.5974 54.752 38.7654 55.28 39.1014 55.648C39.4534 56.016 39.9494 56.2 40.5894 56.2C41.2934 56.2 41.8934 56 42.3894 55.6L43.1094 57.256ZM57.5723 58.192C56.3083 58.192 55.0843 58 53.9003 57.616C52.7323 57.216 51.8123 56.704 51.1403 56.08L52.0283 54.208C52.6683 54.784 53.4843 55.256 54.4763 55.624C55.4843 55.976 56.5163 56.152 57.5723 56.152C58.9643 56.152 60.0043 55.92 60.6923 55.456C61.3803 54.976 61.7243 54.344 61.7243 53.56C61.7243 52.984 61.5323 52.52 61.1483 52.168C60.7803 51.8 60.3163 51.52 59.7563 51.328C59.2123 51.136 58.4363 50.92 57.4283 50.68C56.1643 50.376 55.1403 50.072 54.3563 49.768C53.5883 49.464 52.9243 49 52.3643 48.376C51.8203 47.736 51.5483 46.88 51.5483 45.808C51.5483 44.912 51.7803 44.104 52.2443 43.384C52.7243 42.664 53.4443 42.088 54.4043 41.656C55.3643 41.224 56.5563 41.008 57.9803 41.008C58.9723 41.008 59.9483 41.136 60.9083 41.392C61.8683 41.648 62.6923 42.016 63.3802 42.496L62.5883 44.416C61.8843 43.968 61.1323 43.632 60.3323 43.408C59.5323 43.168 58.7483 43.048 57.9803 43.048C56.6203 43.048 55.5963 43.296 54.9083 43.792C54.2363 44.288 53.9003 44.928 53.9003 45.712C53.9003 46.288 54.0923 46.76 54.4763 47.128C54.8603 47.48 55.3323 47.76 55.8923 47.968C56.4683 48.16 57.2443 48.368 58.2203 48.592C59.4843 48.896 60.5003 49.2 61.2683 49.504C62.0363 49.808 62.6923 50.272 63.2363 50.896C63.7963 51.52 64.0763 52.36 64.0763 53.416C64.0763 54.296 63.8363 55.104 63.3563 55.84C62.8763 56.56 62.1483 57.136 61.1723 57.568C60.1963 57.984 58.9963 58.192 57.5723 58.192ZM71.8785 45.16C73.6385 45.16 74.9825 45.592 75.9105 46.456C76.8545 47.32 77.3265 48.608 77.3265 50.32V58H75.1425V56.32C74.7585 56.912 74.2065 57.368 73.4865 57.688C72.7825 57.992 71.9425 58.144 70.9665 58.144C69.5425 58.144 68.3985 57.8 67.5345 57.112C66.6865 56.424 66.2625 55.52 66.2625 54.4C66.2625 53.28 66.6705 52.384 67.4865 51.712C68.3025 51.024 69.5985 50.68 71.3745 50.68H75.0225V50.224C75.0225 49.232 74.7345 48.472 74.1585 47.944C73.5825 47.416 72.7345 47.152 71.6145 47.152C70.8625 47.152 70.1265 47.28 69.4065 47.536C68.6865 47.776 68.0785 48.104 67.5825 48.52L66.6225 46.792C67.2785 46.264 68.0625 45.864 68.9745 45.592C69.8865 45.304 70.8545 45.16 71.8785 45.16ZM71.3505 56.368C72.2305 56.368 72.9905 56.176 73.6305 55.792C74.2705 55.392 74.7345 54.832 75.0225 54.112V52.336H71.4705C69.5185 52.336 68.5425 52.992 68.5425 54.304C68.5425 54.944 68.7905 55.448 69.2865 55.816C69.7825 56.184 70.4705 56.368 71.3505 56.368ZM86.5343 52.072L83.8943 54.52V58H81.5903V40.192H83.8943V51.616L90.8303 45.28H93.6143L88.2623 50.536L94.1423 58H91.3103L86.5343 52.072ZM103.171 45.16C104.787 45.16 106.067 45.632 107.011 46.576C107.971 47.504 108.451 48.872 108.451 50.68V58H106.147V50.944C106.147 49.712 105.851 48.784 105.259 48.16C104.667 47.536 103.819 47.224 102.715 47.224C101.467 47.224 100.483 47.592 99.7633 48.328C99.0433 49.048 98.6833 50.088 98.6833 51.448V58H96.3793V40.192H98.6833V47.08C99.1633 46.472 99.7873 46 100.555 45.664C101.339 45.328 102.211 45.16 103.171 45.16ZM117.347 45.16C119.107 45.16 120.451 45.592 121.379 46.456C122.323 47.32 122.795 48.608 122.795 50.32V58H120.611V56.32C120.227 56.912 119.675 57.368 118.955 57.688C118.251 57.992 117.411 58.144 116.435 58.144C115.011 58.144 113.867 57.8 113.003 57.112C112.155 56.424 111.731 55.52 111.731 54.4C111.731 53.28 112.139 52.384 112.955 51.712C113.771 51.024 115.067 50.68 116.843 50.68H120.491V50.224C120.491 49.232 120.203 48.472 119.627 47.944C119.051 47.416 118.203 47.152 117.083 47.152C116.331 47.152 115.595 47.28 114.875 47.536C114.155 47.776 113.547 48.104 113.051 48.52L112.091 46.792C112.747 46.264 113.531 45.864 114.443 45.592C115.355 45.304 116.323 45.16 117.347 45.16ZM116.819 56.368C117.699 56.368 118.459 56.176 119.099 55.792C119.739 55.392 120.203 54.832 120.491 54.112V52.336H116.939C114.987 52.336 114.011 52.992 114.011 54.304C114.011 54.944 114.259 55.448 114.755 55.816C115.251 56.184 115.939 56.368 116.819 56.368ZM127.059 40.192H129.363V58H127.059V40.192ZM133.762 45.28H136.066V58H133.762V45.28ZM134.914 42.832C134.466 42.832 134.09 42.688 133.786 42.4C133.498 42.112 133.354 41.76 133.354 41.344C133.354 40.928 133.498 40.576 133.786 40.288C134.09 39.984 134.466 39.832 134.914 39.832C135.362 39.832 135.73 39.976 136.018 40.264C136.322 40.536 136.474 40.88 136.474 41.296C136.474 41.728 136.322 42.096 136.018 42.4C135.73 42.688 135.362 42.832 134.914 42.832ZM147.257 45.16C148.873 45.16 150.153 45.632 151.097 46.576C152.057 47.504 152.537 48.872 152.537 50.68V58H150.233V50.944C150.233 49.712 149.937 48.784 149.345 48.16C148.753 47.536 147.905 47.224 146.801 47.224C145.553 47.224 144.569 47.592 143.849 48.328C143.129 49.048 142.769 50.088 142.769 51.448V58H140.465V45.28H142.673V47.2C143.137 46.544 143.761 46.04 144.545 45.688C145.345 45.336 146.249 45.16 147.257 45.16Z" fill="black"/>
</svg>
