<svg width="238" height="91" viewBox="0 0 238 91" fill="none" xmlns="http://www.w3.org/2000/svg">
<rect width="238" height="91" fill="white"/>
<path d="M58.224 48.55H49.296L47.448 52.75H44.976L52.584 35.95H54.96L62.592 52.75H60.072L58.224 48.55ZM57.384 46.63L53.76 38.398L50.136 46.63H57.384ZM66.9701 42.166C67.3701 41.43 67.9621 40.87 68.7461 40.486C69.5301 40.102 70.4821 39.91 71.6021 39.91V42.142C71.4741 42.126 71.2981 42.118 71.0741 42.118C69.8261 42.118 68.8421 42.494 68.1221 43.246C67.4181 43.982 67.0661 45.038 67.0661 46.414V52.75H64.7621V40.03H66.9701V42.166ZM82.1094 52.006C81.7734 52.294 81.3574 52.518 80.8614 52.678C80.3654 52.822 79.8534 52.894 79.3254 52.894C78.0454 52.894 77.0534 52.55 76.3494 51.862C75.6454 51.174 75.2934 50.19 75.2934 48.91V41.926H73.1334V40.03H75.2934V37.246H77.5974V40.03H81.2454V41.926H77.5974V48.814C77.5974 49.502 77.7654 50.03 78.1014 50.398C78.4534 50.766 78.9494 50.95 79.5894 50.95C80.2934 50.95 80.8934 50.75 81.3894 50.35L82.1094 52.006ZM96.5723 52.942C95.3083 52.942 94.0843 52.75 92.9003 52.366C91.7323 51.966 90.8123 51.454 90.1403 50.83L91.0283 48.958C91.6683 49.534 92.4843 50.006 93.4763 50.374C94.4843 50.726 95.5163 50.902 96.5723 50.902C97.9643 50.902 99.0043 50.67 99.6923 50.206C100.38 49.726 100.724 49.094 100.724 48.31C100.724 47.734 100.532 47.27 100.148 46.918C99.7803 46.55 99.3163 46.27 98.7563 46.078C98.2123 45.886 97.4363 45.67 96.4283 45.43C95.1643 45.126 94.1403 44.822 93.3563 44.518C92.5883 44.214 91.9243 43.75 91.3643 43.126C90.8203 42.486 90.5483 41.63 90.5483 40.558C90.5483 39.662 90.7803 38.854 91.2443 38.134C91.7243 37.414 92.4443 36.838 93.4043 36.406C94.3643 35.974 95.5563 35.758 96.9803 35.758C97.9723 35.758 98.9483 35.886 99.9083 36.142C100.868 36.398 101.692 36.766 102.38 37.246L101.588 39.166C100.884 38.718 100.132 38.382 99.3323 38.158C98.5323 37.918 97.7483 37.798 96.9803 37.798C95.6203 37.798 94.5963 38.046 93.9083 38.542C93.2363 39.038 92.9003 39.678 92.9003 40.462C92.9003 41.038 93.0923 41.51 93.4763 41.878C93.8603 42.23 94.3323 42.51 94.8923 42.718C95.4683 42.91 96.2443 43.118 97.2203 43.342C98.4843 43.646 99.5003 43.95 100.268 44.254C101.036 44.558 101.692 45.022 102.236 45.646C102.796 46.27 103.076 47.11 103.076 48.166C103.076 49.046 102.836 49.854 102.356 50.59C101.876 51.31 101.148 51.886 100.172 52.318C99.1963 52.734 97.9963 52.942 96.5723 52.942ZM110.879 39.91C112.639 39.91 113.983 40.342 114.911 41.206C115.855 42.07 116.327 43.358 116.327 45.07V52.75H114.143V51.07C113.759 51.662 113.207 52.118 112.487 52.438C111.783 52.742 110.943 52.894 109.967 52.894C108.543 52.894 107.399 52.55 106.535 51.862C105.687 51.174 105.263 50.27 105.263 49.15C105.263 48.03 105.671 47.134 106.487 46.462C107.303 45.774 108.599 45.43 110.375 45.43H114.023V44.974C114.023 43.982 113.735 43.222 113.159 42.694C112.583 42.166 111.735 41.902 110.615 41.902C109.863 41.902 109.127 42.03 108.407 42.286C107.687 42.526 107.079 42.854 106.583 43.27L105.623 41.542C106.279 41.014 107.063 40.614 107.975 40.342C108.887 40.054 109.855 39.91 110.879 39.91ZM110.351 51.118C111.231 51.118 111.991 50.926 112.631 50.542C113.271 50.142 113.735 49.582 114.023 48.862V47.086H110.471C108.519 47.086 107.543 47.742 107.543 49.054C107.543 49.694 107.791 50.198 108.287 50.566C108.783 50.934 109.471 51.118 110.351 51.118ZM125.534 46.822L122.894 49.27V52.75H120.59V34.942H122.894V46.366L129.83 40.03H132.614L127.262 45.286L133.142 52.75H130.31L125.534 46.822ZM142.171 39.91C143.787 39.91 145.067 40.382 146.011 41.326C146.971 42.254 147.451 43.622 147.451 45.43V52.75H145.147V45.694C145.147 44.462 144.851 43.534 144.259 42.91C143.667 42.286 142.819 41.974 141.715 41.974C140.467 41.974 139.483 42.342 138.763 43.078C138.043 43.798 137.683 44.838 137.683 46.198V52.75H135.379V34.942H137.683V41.83C138.163 41.222 138.787 40.75 139.555 40.414C140.339 40.078 141.211 39.91 142.171 39.91ZM156.347 39.91C158.107 39.91 159.451 40.342 160.379 41.206C161.323 42.07 161.795 43.358 161.795 45.07V52.75H159.611V51.07C159.227 51.662 158.675 52.118 157.955 52.438C157.251 52.742 156.411 52.894 155.435 52.894C154.011 52.894 152.867 52.55 152.003 51.862C151.155 51.174 150.731 50.27 150.731 49.15C150.731 48.03 151.139 47.134 151.955 46.462C152.771 45.774 154.067 45.43 155.843 45.43H159.491V44.974C159.491 43.982 159.203 43.222 158.627 42.694C158.051 42.166 157.203 41.902 156.083 41.902C155.331 41.902 154.595 42.03 153.875 42.286C153.155 42.526 152.547 42.854 152.051 43.27L151.091 41.542C151.747 41.014 152.531 40.614 153.443 40.342C154.355 40.054 155.323 39.91 156.347 39.91ZM155.819 51.118C156.699 51.118 157.459 50.926 158.099 50.542C158.739 50.142 159.203 49.582 159.491 48.862V47.086H155.939C153.987 47.086 153.011 47.742 153.011 49.054C153.011 49.694 153.259 50.198 153.755 50.566C154.251 50.934 154.939 51.118 155.819 51.118ZM166.059 34.942H168.363V52.75H166.059V34.942ZM172.762 40.03H175.066V52.75H172.762V40.03ZM173.914 37.582C173.466 37.582 173.09 37.438 172.786 37.15C172.498 36.862 172.354 36.51 172.354 36.094C172.354 35.678 172.498 35.326 172.786 35.038C173.09 34.734 173.466 34.582 173.914 34.582C174.362 34.582 174.73 34.726 175.018 35.014C175.322 35.286 175.474 35.63 175.474 36.046C175.474 36.478 175.322 36.846 175.018 37.15C174.73 37.438 174.362 37.582 173.914 37.582ZM186.257 39.91C187.873 39.91 189.153 40.382 190.097 41.326C191.057 42.254 191.537 43.622 191.537 45.43V52.75H189.233V45.694C189.233 44.462 188.937 43.534 188.345 42.91C187.753 42.286 186.905 41.974 185.801 41.974C184.553 41.974 183.569 42.342 182.849 43.078C182.129 43.798 181.769 44.838 181.769 46.198V52.75H179.465V40.03H181.673V41.95C182.137 41.294 182.761 40.79 183.545 40.438C184.345 40.086 185.249 39.91 186.257 39.91Z" fill="black"/>
</svg>
